<svg xmlns="http://www.w3.org/2000/svg" height="511.99999pt" version="1.1" viewBox="1 1 511.99999 511.99999" width="511.99999pt">
<g id="surface1">
<path d="M 197.675781 384.945312 L 291.308594 291.308594 L 197.675781 197.675781 L 291.308594 291.308594 L 291.308594 70.621094 L 220.691406 70.621094 L 220.691406 88.277344 L 220.691406 70.621094 L 70.621094 70.621094 L 70.621094 512 L 291.308594 512 L 291.308594 291.308594 Z M 197.675781 384.945312 " style=" stroke:none;fill-rule:nonzero;fill:rgb(60%,62.352941%,92.941176%);fill-opacity:1;" />
<path d="M 512 70.621094 L 291.308594 70.621094 L 291.308594 291.308594 L 384.945312 197.675781 L 291.308594 291.308594 L 384.945312 384.945312 L 291.308594 291.308594 L 291.308594 512 L 512 512 Z M 512 70.621094 " style=" stroke:none;fill-rule:nonzero;fill:rgb(65.490196%,67.843137%,94.117647%);fill-opacity:1;" />
<path d="M 291.308594 70.621094 L 441.378906 70.621094 L 441.378906 0 L 220.691406 0 L 220.691406 70.621094 Z M 291.308594 70.621094 " style=" stroke:none;fill-rule:nonzero;fill:rgb(43.137255%,46.27451%,89.803922%);fill-opacity:1;" />
<path d="M 220.691406 70.621094 L 220.691406 0 L 0 0 L 0 441.378906 L 70.621094 441.378906 L 70.621094 70.621094 Z M 220.691406 70.621094 " style=" stroke:none;fill-rule:nonzero;fill:rgb(31.764706%,35.686275%,87.843137%);fill-opacity:1;" />
<path d="M 197.683594 393.761719 C 192.808594 393.761719 188.859375 389.808594 188.859375 384.933594 C 188.859375 382.59375 189.789062 380.351562 191.441406 378.695312 L 378.703125 191.445312 C 382.003906 187.855469 387.589844 187.625 391.175781 190.925781 C 394.765625 194.230469 394.996094 199.8125 391.695312 203.402344 C 391.527344 203.582031 391.355469 203.753906 391.175781 203.917969 L 203.917969 391.175781 C 202.265625 392.832031 200.023438 393.761719 197.683594 393.761719 Z M 197.683594 393.761719 " style=" stroke:none;fill-rule:nonzero;fill:rgb(25.882353%,30.588235%,87.058824%);fill-opacity:1;" />
<path d="M 384.9375 393.761719 C 382.59375 393.761719 380.351562 392.832031 378.695312 391.175781 L 191.445312 203.917969 C 187.855469 200.617188 187.625 195.03125 190.925781 191.441406 C 194.230469 187.855469 199.8125 187.625 203.402344 190.925781 C 203.582031 191.089844 203.753906 191.265625 203.917969 191.441406 L 391.175781 378.703125 C 394.625 382.152344 394.625 387.738281 391.175781 391.1875 C 389.519531 392.839844 387.277344 393.769531 384.9375 393.769531 Z M 384.9375 393.761719 " style=" stroke:none;fill-rule:nonzero;fill:rgb(25.882353%,30.588235%,87.058824%);fill-opacity:1;" />
</g>
</svg>